{
    "streams": [
        {
            "index": 0,
            "codec_name": "aac",
            "codec_long_name": "AAC (Advanced Audio Coding)",
            "profile": "LC",
            "codec_type": "audio",
            "codec_tag_string": "aavd",
            "codec_tag": "0x64766161",
            "sample_fmt": "fltp",
            "sample_rate": "44100",
            "channels": 2,
            "channel_layout": "stereo",
            "bits_per_sample": 0,
            "initial_padding": 0,
            "id": "0x1",
            "r_frame_rate": "0/0",
            "avg_frame_rate": "0/0",
            "time_base": "1/44100",
            "start_pts": 0,
            "start_time": "0.000000",
            "duration_ts": 1666685853,
            "duration": "37793.330000",
            "bit_rate": "125588",
            "nb_frames": "1627625",
            "extradata_size": 2,
            "disposition": {
                "default": 1,
                "dub": 0,
                "original": 0,
                "comment": 0,
                "lyrics": 0,
                "karaoke": 0,
                "forced": 0,
                "hearing_impaired": 0,
                "visual_impaired": 0,
                "clean_effects": 0,
                "attached_pic": 0,
                "timed_thumbnails": 0,
                "non_diegetic": 0,
                "captions": 0,
                "descriptions": 0,
                "metadata": 0,
                "dependent": 0,
                "still_image": 0,
                "multilayer": 0
            },
            "tags": {
                "creation_time": "2022-06-06T21:34:30.000000Z",
                "language": "eng",
                "handler_name": "\u0019Apple Sound Media Handler",
                "vendor_id": "[0][0][0][0]"
            }
        },
        {
            "index": 1,
            "codec_name": "bin_data",
            "codec_long_name": "binary data",
            "codec_type": "data",
            "codec_tag_string": "text",
            "codec_tag": "0x74786574",
            "id": "0x2",
            "r_frame_rate": "0/0",
            "avg_frame_rate": "0/0",
            "time_base": "1/44100",
            "start_pts": 0,
            "start_time": "0.000000",
            "duration_ts": 1666685853,
            "duration": "37793.330000",
            "nb_frames": "62",
            "extradata_size": 43,
            "disposition": {
                "default": 1,
                "dub": 0,
                "original": 0,
                "comment": 0,
                "lyrics": 0,
                "karaoke": 0,
                "forced": 0,
                "hearing_impaired": 0,
                "visual_impaired": 0,
                "clean_effects": 0,
                "attached_pic": 0,
                "timed_thumbnails": 0,
                "non_diegetic": 0,
                "captions": 0,
                "descriptions": 0,
                "metadata": 0,
                "dependent": 0,
                "still_image": 0,
                "multilayer": 0
            },
            "tags": {
                "creation_time": "2022-06-06T21:34:30.000000Z",
                "language": "eng",
                "handler_name": "\u0018Apple Text Media Handler",
                "title": "End Credits",
                "comment": "End Credits"
            }
        },
        {
            "index": 2,
            "codec_name": "mjpeg",
            "codec_long_name": "Motion JPEG",
            "profile": "Baseline",
            "codec_type": "video",
            "codec_tag_string": "[0][0][0][0]",
            "codec_tag": "0x0000",
            "width": 600,
            "height": 600,
            "coded_width": 600,
            "coded_height": 600,
            "has_b_frames": 0,
            "sample_aspect_ratio": "1:1",
            "display_aspect_ratio": "1:1",
            "pix_fmt": "yuvj420p",
            "level": -99,
            "color_range": "pc",
            "color_space": "bt470bg",
            "chroma_location": "center",
            "refs": 1,
            "id": "0x0",
            "r_frame_rate": "90000/1",
            "avg_frame_rate": "0/0",
            "time_base": "1/90000",
            "start_pts": 0,
            "start_time": "0.000000",
            "duration_ts": 3401399700,
            "duration": "37793.330000",
            "bits_per_raw_sample": "8",
            "disposition": {
                "default": 0,
                "dub": 0,
                "original": 0,
                "comment": 0,
                "lyrics": 0,
                "karaoke": 0,
                "forced": 0,
                "hearing_impaired": 0,
                "visual_impaired": 0,
                "clean_effects": 0,
                "attached_pic": 1,
                "timed_thumbnails": 0,
                "non_diegetic": 0,
                "captions": 0,
                "descriptions": 0,
                "metadata": 0,
                "dependent": 0,
                "still_image": 0,
                "multilayer": 0
            }
        }
    ],
    "format": {
        "filename": "/Volumes/Media/Audiobooks/Downloads/Mastering_Magic_Jeff_the_Game_Master_Book_3-AAX_44_128.aaxc",
        "nb_streams": 3,
        "nb_programs": 0,
        "nb_stream_groups": 0,
        "format_name": "mov,mp4,m4a,3gp,3g2,mj2",
        "format_long_name": "QuickTime / MOV",
        "start_time": "0.000000",
        "duration": "37793.330000",
        "size": "608799658",
        "bit_rate": "128869",
        "probe_score": 100,
        "tags": {
            "major_brand": "aaxc",
            "minor_version": "1",
            "compatible_brands": "aaxcM4B mp42isom",
            "creation_time": "2022-06-06T21:34:30.000000Z",
            "title": "Mastering Magic: Jeff the Game Master, Book 3 (Unabridged)",
            "artist": "Jaime Castle, Troy Osgood",
            "album_artist": "Jaime Castle, Troy Osgood",
            "album": "Mastering Magic (Unabridged)",
            "genre": "Audiobook",
            "comment": "Logout button disabled, Jeff and crew find themselves stuck until they can defeat King Tom and the rogue patcher. The mystery still looms: who is behind Infinite Worlds’ attack? Dan Shaklee makes discoveries with implications beyond anything he could’ve ever imagined....",
            "copyright": "&#169;2022 Aethon Books;(P)2022 Podium Audio",
            "date": "2022"
        }
    }
}
